<?xml version="1.0" encoding="UTF-8" standalone="no"?>
<!DOCTYPE svg PUBLIC "-//W3C//DTD SVG 1.1//EN"
 "http://www.w3.org/Graphics/SVG/1.1/DTD/svg11.dtd">
<!-- Generated by graphviz version 2.38.0 (20140413.2041)
 -->
<!-- Title: G Pages: 1 -->
<svg width="368pt" height="1392pt"
 viewBox="0.00 0.00 368.00 1392.00" xmlns="http://www.w3.org/2000/svg" xmlns:xlink="http://www.w3.org/1999/xlink">
<g id="graph0" class="graph" transform="scale(1 1) rotate(0) translate(4 1388)">
<title>G</title>
<polygon fill="white" stroke="none" points="-4,4 -4,-1388 364,-1388 364,4 -4,4"/>
<g id="clust1" class="cluster"><title>cluster_Global</title>
<path fill="none" stroke="gray" d="M20,-8C20,-8 340,-8 340,-8 346,-8 352,-14 352,-20 352,-20 352,-1364 352,-1364 352,-1370 346,-1376 340,-1376 340,-1376 20,-1376 20,-1376 14,-1376 8,-1370 8,-1364 8,-1364 8,-20 8,-20 8,-14 14,-8 20,-8"/>
<text text-anchor="middle" x="180" y="-1363.2" font-family="Times New Roman,serif" font-size="11.00" fill="gray">Global</text>
</g>
<!-- \\View -->
<g id="node1" class="node"><title>\\View</title>
<polygon fill="none" stroke="black" points="298.5,-1348 244.5,-1348 244.5,-1312 298.5,-1312 298.5,-1348"/>
<text text-anchor="middle" x="271.5" y="-1327.2" font-family="Courier,monospace" font-size="11.00">View</text>
</g>
<!-- \\UserModel -->
<g id="node2" class="node"><title>\\UserModel</title>
<polygon fill="none" stroke="black" points="310,-1240 233,-1240 233,-1204 310,-1204 310,-1240"/>
<text text-anchor="middle" x="271.5" y="-1219.2" font-family="Courier,monospace" font-size="11.00">UserModel</text>
</g>
<!-- \\BaseModel -->
<g id="node12" class="node"><title>\\BaseModel</title>
<polygon fill="none" stroke="black" points="110,-1105 33,-1105 33,-1069 110,-1069 110,-1105"/>
<text text-anchor="middle" x="71.5" y="-1084.2" font-family="Courier,monospace" font-size="11.00">BaseModel</text>
</g>
<!-- \\UserModel&#45;&gt;\\BaseModel -->
<g id="edge1" class="edge"><title>\\UserModel&#45;&gt;\\BaseModel</title>
<path fill="none" stroke="black" d="M232.635,-1210.47C221.434,-1206.33 209.394,-1201.14 199,-1195 159.97,-1171.93 121.232,-1136.53 97.109,-1112.61"/>
<polygon fill="none" stroke="black" points="99.3438,-1109.89 89.8085,-1105.27 94.3826,-1114.83 99.3438,-1109.89"/>
</g>
<!-- \\LoginController -->
<g id="node3" class="node"><title>\\LoginController</title>
<polygon fill="none" stroke="black" points="330.5,-268 212.5,-268 212.5,-232 330.5,-232 330.5,-268"/>
<text text-anchor="middle" x="271.5" y="-247.2" font-family="Courier,monospace" font-size="11.00">LoginController</text>
</g>
<!-- \\BaseController -->
<g id="node7" class="node"><title>\\BaseController</title>
<polygon fill="none" stroke="black" points="127,-538 16,-538 16,-502 127,-502 127,-538"/>
<text text-anchor="start" x="37.5" y="-523.2" font-family="Courier,monospace" font-size="11.00">«abstract»</text>
<text text-anchor="start" x="24" y="-511.2" font-family="Courier,monospace" font-size="11.00">BaseController</text>
</g>
<!-- \\LoginController&#45;&gt;\\BaseController -->
<g id="edge2" class="edge"><title>\\LoginController&#45;&gt;\\BaseController</title>
<path fill="none" stroke="black" d="M212.169,-267.703C207.444,-270.395 202.969,-273.477 199,-277 131.256,-337.133 94.2949,-442.287 79.809,-492.193"/>
<polygon fill="none" stroke="black" points="76.3981,-491.393 77.0559,-501.967 83.1359,-493.291 76.3981,-491.393"/>
</g>
<!-- \\AjaxController -->
<g id="node4" class="node"><title>\\AjaxController</title>
<polygon fill="none" stroke="black" points="327,-160 216,-160 216,-124 327,-124 327,-160"/>
<text text-anchor="middle" x="271.5" y="-139.2" font-family="Courier,monospace" font-size="11.00">AjaxController</text>
</g>
<!-- \\AjaxController&#45;&gt;\\BaseController -->
<g id="edge3" class="edge"><title>\\AjaxController&#45;&gt;\\BaseController</title>
<path fill="none" stroke="black" d="M215.875,-156.746C209.667,-160.052 203.842,-164.084 199,-169 107.289,-262.112 81.5626,-426.488 74.7785,-491.953"/>
<polygon fill="none" stroke="black" points="71.2918,-491.647 73.8135,-501.938 78.2593,-492.321 71.2918,-491.647"/>
</g>
<!-- \\PdfModel -->
<g id="node5" class="node"><title>\\PdfModel</title>
<polygon fill="none" stroke="black" points="307,-1186 236,-1186 236,-1150 307,-1150 307,-1186"/>
<text text-anchor="middle" x="271.5" y="-1165.2" font-family="Courier,monospace" font-size="11.00">PdfModel</text>
</g>
<!-- \\PdfModel&#45;&gt;\\BaseModel -->
<g id="edge4" class="edge"><title>\\PdfModel&#45;&gt;\\BaseModel</title>
<path fill="none" stroke="black" d="M235.836,-1155.25C224.099,-1150.84 210.942,-1145.8 199,-1141 172.615,-1130.39 143.402,-1117.97 119.703,-1107.71"/>
<polygon fill="none" stroke="black" points="120.81,-1104.38 110.243,-1103.61 118.023,-1110.8 120.81,-1104.38"/>
</g>
<!-- \\FeastdaysController -->
<g id="node6" class="node"><title>\\FeastdaysController</title>
<polygon fill="none" stroke="black" points="344,-862 199,-862 199,-826 344,-826 344,-862"/>
<text text-anchor="middle" x="271.5" y="-841.2" font-family="Courier,monospace" font-size="11.00">FeastdaysController</text>
</g>
<!-- \\FeastdaysController&#45;&gt;\\BaseController -->
<g id="edge5" class="edge"><title>\\FeastdaysController&#45;&gt;\\BaseController</title>
<path fill="none" stroke="black" d="M210.827,-825.99C206.555,-823.379 202.543,-820.399 199,-817 119.423,-740.665 87.4434,-606.23 76.9035,-548.094"/>
<polygon fill="none" stroke="black" points="80.3375,-547.411 75.1783,-538.157 73.4407,-548.609 80.3375,-547.411"/>
</g>
<!-- \\LoginModel -->
<g id="node8" class="node"><title>\\LoginModel</title>
<polygon fill="none" stroke="black" points="313.5,-1132 229.5,-1132 229.5,-1096 313.5,-1096 313.5,-1132"/>
<text text-anchor="middle" x="271.5" y="-1111.2" font-family="Courier,monospace" font-size="11.00">LoginModel</text>
</g>
<!-- \\LoginModel&#45;&gt;\\BaseModel -->
<g id="edge6" class="edge"><title>\\LoginModel&#45;&gt;\\BaseModel</title>
<path fill="none" stroke="black" d="M229.474,-1108.41C197.652,-1104.07 153.49,-1098.04 120.112,-1093.49"/>
<polygon fill="none" stroke="black" points="120.506,-1090.01 110.124,-1092.13 119.56,-1096.95 120.506,-1090.01"/>
</g>
<!-- \\FeastDaysModel -->
<g id="node9" class="node"><title>\\FeastDaysModel</title>
<polygon fill="none" stroke="black" points="327,-1078 216,-1078 216,-1042 327,-1042 327,-1078"/>
<text text-anchor="middle" x="271.5" y="-1057.2" font-family="Courier,monospace" font-size="11.00">FeastDaysModel</text>
</g>
<!-- \\FeastDaysModel&#45;&gt;\\BaseModel -->
<g id="edge7" class="edge"><title>\\FeastDaysModel&#45;&gt;\\BaseModel</title>
<path fill="none" stroke="black" d="M215.871,-1067.45C185.899,-1071.54 149.085,-1076.56 120.267,-1080.49"/>
<polygon fill="none" stroke="black" points="119.474,-1077.06 110.039,-1081.88 120.42,-1084 119.474,-1077.06"/>
</g>
<!-- \\UserController -->
<g id="node10" class="node"><title>\\UserController</title>
<polygon fill="none" stroke="black" points="327,-808 216,-808 216,-772 327,-772 327,-808"/>
<text text-anchor="middle" x="271.5" y="-787.2" font-family="Courier,monospace" font-size="11.00">UserController</text>
</g>
<!-- \\UserController&#45;&gt;\\BaseController -->
<g id="edge8" class="edge"><title>\\UserController&#45;&gt;\\BaseController</title>
<path fill="none" stroke="black" d="M215.755,-774.243C209.713,-771.118 203.962,-767.404 199,-763 131.256,-702.867 94.2949,-597.713 79.809,-547.807"/>
<polygon fill="none" stroke="black" points="83.1359,-546.709 77.0559,-538.033 76.3981,-548.607 83.1359,-546.709"/>
</g>
<!-- \\ErrorModel -->
<g id="node11" class="node"><title>\\ErrorModel</title>
<polygon fill="none" stroke="black" points="313.5,-1024 229.5,-1024 229.5,-988 313.5,-988 313.5,-1024"/>
<text text-anchor="middle" x="271.5" y="-1003.2" font-family="Courier,monospace" font-size="11.00">ErrorModel</text>
</g>
<!-- \\ErrorModel&#45;&gt;\\BaseModel -->
<g id="edge9" class="edge"><title>\\ErrorModel&#45;&gt;\\BaseModel</title>
<path fill="none" stroke="black" d="M229.172,-1021.27C219.258,-1025.02 208.726,-1029.09 199,-1033 172.615,-1043.61 143.402,-1056.03 119.703,-1066.29"/>
<polygon fill="none" stroke="black" points="118.023,-1063.2 110.243,-1070.39 120.81,-1069.62 118.023,-1063.2"/>
</g>
<!-- \\HolidayController -->
<g id="node13" class="node"><title>\\HolidayController</title>
<polygon fill="none" stroke="black" points="337,-700 206,-700 206,-664 337,-664 337,-700"/>
<text text-anchor="middle" x="271.5" y="-679.2" font-family="Courier,monospace" font-size="11.00">HolidayController</text>
</g>
<!-- \\HolidayController&#45;&gt;\\BaseController -->
<g id="edge10" class="edge"><title>\\HolidayController&#45;&gt;\\BaseController</title>
<path fill="none" stroke="black" d="M214.966,-663.975C209.391,-661.306 203.963,-658.319 199,-655 154.289,-625.097 113.94,-576.545 91.3807,-546.54"/>
<polygon fill="none" stroke="black" points="93.9949,-544.189 85.2329,-538.233 88.3681,-548.353 93.9949,-544.189"/>
</g>
<!-- \\Session -->
<g id="node14" class="node"><title>\\Session</title>
<polygon fill="none" stroke="black" points="303.5,-754 239.5,-754 239.5,-718 303.5,-718 303.5,-754"/>
<text text-anchor="middle" x="271.5" y="-733.2" font-family="Courier,monospace" font-size="11.00">Session</text>
</g>
<!-- \\AjaxModel -->
<g id="node15" class="node"><title>\\AjaxModel</title>
<polygon fill="none" stroke="black" points="310,-970 233,-970 233,-934 310,-934 310,-970"/>
<text text-anchor="middle" x="271.5" y="-949.2" font-family="Courier,monospace" font-size="11.00">AjaxModel</text>
</g>
<!-- \\AjaxModel&#45;&gt;\\BaseModel -->
<g id="edge11" class="edge"><title>\\AjaxModel&#45;&gt;\\BaseModel</title>
<path fill="none" stroke="black" d="M232.635,-963.533C221.434,-967.668 209.394,-972.856 199,-979 159.97,-1002.07 121.232,-1037.47 97.109,-1061.39"/>
<polygon fill="none" stroke="black" points="94.3826,-1059.17 89.8085,-1068.73 99.3438,-1064.11 94.3826,-1059.17"/>
</g>
<!-- \\Database -->
<g id="node16" class="node"><title>\\Database</title>
<polygon fill="none" stroke="black" points="307,-646 236,-646 236,-610 307,-610 307,-646"/>
<text text-anchor="middle" x="271.5" y="-625.2" font-family="Courier,monospace" font-size="11.00">Database</text>
</g>
<!-- \\HolidayModel -->
<g id="node17" class="node"><title>\\HolidayModel</title>
<polygon fill="none" stroke="black" points="320.5,-916 222.5,-916 222.5,-880 320.5,-880 320.5,-916"/>
<text text-anchor="middle" x="271.5" y="-895.2" font-family="Courier,monospace" font-size="11.00">HolidayModel</text>
</g>
<!-- \\HolidayModel&#45;&gt;\\BaseModel -->
<g id="edge12" class="edge"><title>\\HolidayModel&#45;&gt;\\BaseModel</title>
<path fill="none" stroke="black" d="M222.462,-911.964C214.222,-915.5 206.053,-919.809 199,-925 148.61,-962.085 107.905,-1024.36 87.2558,-1059.93"/>
<polygon fill="none" stroke="black" points="84.1184,-1058.36 82.2079,-1068.79 90.2001,-1061.83 84.1184,-1058.36"/>
</g>
<!-- \\MySqlSessionHandler -->
<g id="node18" class="node"><title>\\MySqlSessionHandler</title>
<polygon fill="none" stroke="black" points="344,-538 199,-538 199,-502 344,-502 344,-538"/>
<text text-anchor="middle" x="271.5" y="-517.2" font-family="Courier,monospace" font-size="11.00">MySqlSessionHandler</text>
</g>
<!-- \\ErrorController -->
<g id="node19" class="node"><title>\\ErrorController</title>
<polygon fill="none" stroke="black" points="330.5,-322 212.5,-322 212.5,-286 330.5,-286 330.5,-322"/>
<text text-anchor="middle" x="271.5" y="-301.2" font-family="Courier,monospace" font-size="11.00">ErrorController</text>
</g>
<!-- \\ErrorController&#45;&gt;\\BaseController -->
<g id="edge13" class="edge"><title>\\ErrorController&#45;&gt;\\BaseController</title>
<path fill="none" stroke="black" d="M212.569,-322.18C207.76,-324.772 203.157,-327.7 199,-331 142.864,-375.567 102.732,-451.964 84.1346,-492.64"/>
<polygon fill="none" stroke="black" points="80.8652,-491.377 79.9766,-501.935 87.255,-494.236 80.8652,-491.377"/>
</g>
<!-- \\Utils -->
<g id="node20" class="node"><title>\\Utils</title>
<polygon fill="none" stroke="black" points="298.5,-430 244.5,-430 244.5,-394 298.5,-394 298.5,-430"/>
<text text-anchor="middle" x="271.5" y="-409.2" font-family="Courier,monospace" font-size="11.00">Utils</text>
</g>
<!-- \\ErrorHandler -->
<g id="node21" class="node"><title>\\ErrorHandler</title>
<polygon fill="none" stroke="black" points="320.5,-376 222.5,-376 222.5,-340 320.5,-340 320.5,-376"/>
<text text-anchor="middle" x="271.5" y="-355.2" font-family="Courier,monospace" font-size="11.00">ErrorHandler</text>
</g>
<!-- \\IndexController -->
<g id="node22" class="node"><title>\\IndexController</title>
<polygon fill="none" stroke="black" points="330.5,-592 212.5,-592 212.5,-556 330.5,-556 330.5,-592"/>
<text text-anchor="middle" x="271.5" y="-571.2" font-family="Courier,monospace" font-size="11.00">IndexController</text>
</g>
<!-- \\IndexController&#45;&gt;\\BaseController -->
<g id="edge14" class="edge"><title>\\IndexController&#45;&gt;\\BaseController</title>
<path fill="none" stroke="black" d="M212.431,-558.163C188.762,-551.708 161.305,-544.22 137.014,-537.595"/>
<polygon fill="none" stroke="black" points="137.74,-534.165 127.172,-534.91 135.898,-540.918 137.74,-534.165"/>
</g>
<!-- \\PdfController -->
<g id="node23" class="node"><title>\\PdfController</title>
<polygon fill="none" stroke="black" points="323.5,-484 219.5,-484 219.5,-448 323.5,-448 323.5,-484"/>
<text text-anchor="middle" x="271.5" y="-463.2" font-family="Courier,monospace" font-size="11.00">PdfController</text>
</g>
<!-- \\PdfController&#45;&gt;\\BaseController -->
<g id="edge15" class="edge"><title>\\PdfController&#45;&gt;\\BaseController</title>
<path fill="none" stroke="black" d="M219.253,-479.977C194.258,-486.793 163.924,-495.066 137.337,-502.317"/>
<polygon fill="none" stroke="black" points="136.076,-499.033 127.349,-505.041 137.918,-505.787 136.076,-499.033"/>
</g>
<!-- \\Classloader -->
<g id="node24" class="node"><title>\\Classloader</title>
<polygon fill="none" stroke="black" points="317,-214 226,-214 226,-178 317,-178 317,-214"/>
<text text-anchor="middle" x="271.5" y="-193.2" font-family="Courier,monospace" font-size="11.00">Classloader</text>
</g>
<!-- \\IndexModel -->
<g id="node25" class="node"><title>\\IndexModel</title>
<polygon fill="none" stroke="black" points="313.5,-1294 229.5,-1294 229.5,-1258 313.5,-1258 313.5,-1294"/>
<text text-anchor="middle" x="271.5" y="-1273.2" font-family="Courier,monospace" font-size="11.00">IndexModel</text>
</g>
<!-- \\IndexModel&#45;&gt;\\BaseModel -->
<g id="edge16" class="edge"><title>\\IndexModel&#45;&gt;\\BaseModel</title>
<path fill="none" stroke="black" d="M229.199,-1264.76C218.761,-1260.78 207.977,-1255.61 199,-1249 148.61,-1211.92 107.905,-1149.64 87.2558,-1114.07"/>
<polygon fill="none" stroke="black" points="90.2001,-1112.17 82.2079,-1105.21 84.1184,-1115.64 90.2001,-1112.17"/>
</g>
<!-- \\ViewModel -->
<g id="node26" class="node"><title>\\ViewModel</title>
<polygon fill="none" stroke="black" points="310,-106 233,-106 233,-70 310,-70 310,-106"/>
<text text-anchor="middle" x="271.5" y="-85.2" font-family="Courier,monospace" font-size="11.00">ViewModel</text>
</g>
<!-- \\Loader -->
<g id="node27" class="node"><title>\\Loader</title>
<polygon fill="none" stroke="black" points="300,-52 243,-52 243,-16 300,-16 300,-52"/>
<text text-anchor="middle" x="271.5" y="-31.2" font-family="Courier,monospace" font-size="11.00">Loader</text>
</g>
</g>
</svg>
